<?xml version="1.0" encoding="UTF-8"?>
<svg id="Layer_1" data-name="Layer 1" xmlns="http://www.w3.org/2000/svg" xmlns:xlink="http://www.w3.org/1999/xlink" viewBox="0 0 601.32 287.02">
  <defs>
    <style>
      .cls-1 {
        font-family: Gilroy-Light, Gilroy;
        font-size: 87.99px;
        font-weight: 300;
      }

      .cls-1, .cls-2 {
        fill: #190044;
      }

      .cls-3 {
        fill: url(#linear-gradient);
        stroke: #fff;
        stroke-miterlimit: 10;
        stroke-width: 4px;
      }

      .cls-2 {
        stroke-width: 0px;
      }
    </style>
    <linearGradient id="linear-gradient" x1="287.03" y1="5.85" x2="353.51" y2="252.43" gradientUnits="userSpaceOnUse">
      <stop offset="0" stop-color="#ffb364"/>
      <stop offset="1" stop-color="#ff00c6"/>
    </linearGradient>
  </defs>
  <text class="cls-1" transform="translate(330.66 247.64)"><tspan x="0" y="0">design</tspan></text>
  <g>
    <path class="cls-2" d="m90.76,41.2c14.73,0,26.63,4.71,35.71,14.13,9.08,9.42,13.62,22.35,13.62,38.8v78.88h-27.75v-76.05c0-9.59-2.57-16.96-7.71-22.1-5.14-5.14-12.16-7.71-21.07-7.71-9.76,0-17.64,3.04-23.64,9.12-6,6.08-8.99,15.38-8.99,27.88v68.86h-27.75V44.54h27.75v16.44c8.39-13.19,21.67-19.78,39.83-19.78Z"/>
    <path class="cls-2" d="m191.73,120.6c2.06,9.76,6.76,17.26,14.13,22.48,7.36,5.23,16.36,7.84,26.98,7.84,14.73,0,25.78-5.31,33.15-15.93l22.87,13.36c-12.68,18.67-31.43,28.01-56.27,28.01-20.9,0-37.77-6.38-50.62-19.14-12.85-12.76-19.27-28.91-19.27-48.43s6.34-35.24,19.01-48.18c12.67-12.93,28.95-19.4,48.82-19.4,18.84,0,34.3,6.6,46.38,19.78,12.08,13.19,18.11,29.21,18.11,48.05,0,2.92-.34,6.77-1.03,11.56h-102.26Zm-.26-22.61h75.54c-1.89-10.45-6.21-18.33-12.98-23.64-6.77-5.31-14.69-7.96-23.77-7.96-10.28,0-18.84,2.83-25.69,8.48-6.85,5.65-11.22,13.36-13.1,23.12Z"/>
    <path class="cls-2" d="m547.8,44.54h27.75v128.47h-27.75v-18.5c-10.45,14.56-25.44,21.84-44.96,21.84-17.64,0-32.72-6.55-45.22-19.66-12.51-13.1-18.76-29.07-18.76-47.92s6.25-35.03,18.76-48.05c12.5-13.02,27.58-19.53,45.22-19.53,19.53,0,34.51,7.19,44.96,21.58v-18.24Zm-69.63,93.65c7.71,7.8,17.38,11.69,29.03,11.69s21.33-3.89,29.03-11.69c7.71-7.79,11.56-17.6,11.56-29.42s-3.85-21.62-11.56-29.42c-7.71-7.79-17.39-11.69-29.03-11.69s-21.33,3.9-29.03,11.69c-7.71,7.8-11.56,17.6-11.56,29.42s3.85,21.63,11.56,29.42Z"/>
    <polygon class="cls-2" points="388.5 107.19 434.23 44.54 401.86 44.54 372.31 85.02 372.31 129.38 372.45 129.2 404.43 173.01 436.55 173.01 388.5 107.19"/>
  </g>
  <polygon class="cls-3" points="364.05 73.7 319.41 12.56 270.9 12.56 339.79 106.94 267.02 206.62 315.92 206.62 364.05 140.71 388.5 107.2 364.05 73.7"/>
</svg>